<svg xmlns="http://www.w3.org/2000/svg" width="56" height="48" viewBox="0 0 56 48"><g><g><path fill="#fff" d="M51.608 44.418c-.05.16-.131.429-.176.481 0 0-.038.017-.144.017-.336 0-.508-.167-.962-.781-.482-.652-1.14-1.547-2.471-1.547-1.33 0-1.99.895-2.47 1.547-.454.616-.626.783-.964.783-.339 0-.51-.167-.962-.78-.482-.653-1.141-1.548-2.47-1.548-1.331 0-1.99.895-2.472 1.547-.454.614-.623.781-.962.781-.338 0-.51-.167-.964-.783-.482-.652-1.14-1.547-2.47-1.547-1.33 0-1.99.895-2.47 1.547-.453.614-.623.78-.961.78-.337 0-.508-.166-.962-.78-.482-.652-1.14-1.547-2.47-1.547-1.33 0-1.99.895-2.472 1.547-.454.614-.623.78-.962.78-.338 0-.51-.166-.962-.78-.482-.652-1.14-1.547-2.47-1.547-1.33 0-1.989.895-2.471 1.547-.282.386-.456.595-.628.697-.028-.57.113-1.642.205-2.337l.056-.435c1.653-1.295 3.817-2.83 9.864-3.406.195.702.402 1.413.628 2.137a.943.943 0 0 0 .896.664h7.992c.41 0 .771-.269.896-.664.245-.776.468-1.54.675-2.295 9.537.498 12.823 3.235 13.865 4.568-.464.412-.652.997-.762 1.354zM31.935 5.482v34.07h-2.297c-5.262-17.33-.479-29.169 2.297-34.07zm4.307 34.07h-2.436V5.234c2.755 4.73 7.802 16.645 2.436 34.32zm18.324 4.397a.518.518 0 0 0 .036-.083c.011-.029.019-.06.028-.09.007-.029.014-.057.019-.086.007-.033.01-.069.012-.102.002-.019.004-.035.004-.054l-.002-.029a.715.715 0 0 0-.01-.1l-.014-.092-.004-.031c-.066-.244-1.764-5.833-15.644-6.655C44.3 14.64 34.19 2.265 33.728 1.72a.931.931 0 0 0-.717-.334l-.139-.005a.9.9 0 0 0-.198.021c-.016.005-.032.012-.049.015a.918.918 0 0 0-.136.045.471.471 0 0 0-.06.033c-.037.021-.072.04-.107.064a.386.386 0 0 0-.06.05.953.953 0 0 0-.086.083c-.007.01-.017.014-.026.024-.46.548-10.62 12.986-5.216 35.08-4.986.509-7.512 1.653-9.243 2.808-.047-.503-.176-.909-.44-1.222a1.414 1.414 0 0 0-1.05-.51c-2.564-.08-5.04 3.24-6.451 5.525-.36-1.733-.544-3.904.249-5.129.393-.605 1.02-.93 1.921-.99 2.418-.158 3.302-1.112 3.62-1.884.364-.887.133-1.9-.636-2.781-1.11-1.275-3.379-2.243-5.954-1.54-3.457.942-6.529 5.207-7.5 8.785-.75 2.763-.352 5.127 1.122 6.652a.934.934 0 0 0 1.331.02.957.957 0 0 0 .019-1.344c-1.336-1.383-.983-3.619-.656-4.827.933-3.436 3.704-6.78 6.176-7.455 1.782-.488 3.348.157 4.05.962.263.301.383.617.307.802-.113.277-.705.629-2.001.714-1.491.097-2.657.736-3.377 1.846-1.921 2.972-.073 8.342.143 8.945a.937.937 0 0 0 1.724.102c1.294-2.584 3.786-6.137 5.543-6.483.05.555-.103 1.706-.2 2.442-.27 2.036-.402 3.322.254 4.077a1.4 1.4 0 0 0 1.075.486c1.329 0 1.99-.892 2.47-1.542.453-.615.625-.781.961-.781.339 0 .51.166.962.778.482.65 1.14 1.543 2.47 1.543 1.328 0 1.989-.892 2.469-1.543.454-.614.625-.78.962-.78.338 0 .51.166.962.778.482.65 1.14 1.543 2.469 1.543 1.33 0 1.99-.893 2.47-1.543.453-.612.622-.778.961-.778.339 0 .51.166.962.778.482.65 1.14 1.543 2.472 1.543 1.328 0 1.99-.893 2.469-1.543.454-.615.626-.78.962-.78.339 0 .51.165.962.778.482.65 1.14 1.542 2.47 1.542 1.33 0 1.989-.892 2.47-1.542.455-.613.624-.779.963-.779.338 0 .51.166.962.781.482.65 1.14 1.543 2.469 1.543 1.55 0 1.933-1.234 2.116-1.828.05-.159.132-.427.177-.48 0 0 .037-.016.143-.016a.894.894 0 0 0 .226-.03c.01-.003.016 0 .026-.003.021-.005.037-.014.056-.021.03-.012.061-.022.09-.036.03-.014.056-.03.084-.045a.633.633 0 0 0 .146-.11c.021-.018.04-.037.059-.056l.061-.074c.017-.023.033-.045.05-.071a.172.172 0 0 0 .056-.074z"/><path fill="none" stroke="#222532" stroke-miterlimit="20" d="M51.608 44.418c-.05.16-.131.429-.176.481 0 0-.038.017-.144.017-.336 0-.508-.167-.962-.781-.482-.652-1.14-1.547-2.471-1.547-1.33 0-1.99.895-2.47 1.547-.454.616-.626.783-.964.783-.339 0-.51-.167-.962-.78-.482-.653-1.141-1.548-2.47-1.548-1.331 0-1.99.895-2.472 1.547-.454.614-.623.781-.962.781-.338 0-.51-.167-.964-.783-.482-.652-1.14-1.547-2.47-1.547-1.33 0-1.99.895-2.47 1.547-.453.614-.623.78-.961.78-.337 0-.508-.166-.962-.78-.482-.652-1.14-1.547-2.47-1.547-1.33 0-1.99.895-2.472 1.547-.454.614-.623.78-.962.78-.338 0-.51-.166-.962-.78-.482-.652-1.14-1.547-2.47-1.547-1.33 0-1.989.895-2.471 1.547-.282.386-.456.595-.628.697-.028-.57.113-1.642.205-2.337l.056-.435c1.653-1.295 3.817-2.83 9.864-3.406.195.702.402 1.413.628 2.137a.943.943 0 0 0 .896.664h7.992c.41 0 .771-.269.896-.664.245-.776.468-1.54.675-2.295 9.537.498 12.823 3.235 13.865 4.568-.464.412-.652.997-.762 1.354zM31.935 5.482v34.07h-2.297c-5.262-17.33-.479-29.169 2.297-34.07zm4.307 34.07h-2.436V5.234c2.755 4.73 7.802 16.645 2.436 34.32zm18.324 4.397a.518.518 0 0 0 .036-.083c.011-.029.019-.06.028-.09.007-.029.014-.057.019-.086.007-.033.01-.069.012-.102.002-.019.004-.035.004-.054l-.002-.029a.715.715 0 0 0-.01-.1l-.014-.092-.004-.031c-.066-.244-1.764-5.833-15.644-6.655C44.3 14.64 34.19 2.265 33.728 1.72a.931.931 0 0 0-.717-.334l-.139-.005a.9.9 0 0 0-.198.021c-.016.005-.032.012-.049.015a.918.918 0 0 0-.136.045.471.471 0 0 0-.06.033c-.037.021-.072.04-.107.064a.386.386 0 0 0-.06.05.953.953 0 0 0-.086.083c-.007.01-.017.014-.026.024-.46.548-10.62 12.986-5.216 35.08-4.986.509-7.512 1.653-9.243 2.808-.047-.503-.176-.909-.44-1.222a1.414 1.414 0 0 0-1.05-.51c-2.564-.08-5.04 3.24-6.451 5.525-.36-1.733-.544-3.904.249-5.129.393-.605 1.02-.93 1.921-.99 2.418-.158 3.302-1.112 3.62-1.884.364-.887.133-1.9-.636-2.781-1.11-1.275-3.379-2.243-5.954-1.54-3.457.942-6.529 5.207-7.5 8.785-.75 2.763-.352 5.127 1.122 6.652a.934.934 0 0 0 1.331.02.957.957 0 0 0 .019-1.344c-1.336-1.383-.983-3.619-.656-4.827.933-3.436 3.704-6.78 6.176-7.455 1.782-.488 3.348.157 4.05.962.263.301.383.617.307.802-.113.277-.705.629-2.001.714-1.491.097-2.657.736-3.377 1.846-1.921 2.972-.073 8.342.143 8.945a.937.937 0 0 0 1.724.102c1.294-2.584 3.786-6.137 5.543-6.483.05.555-.103 1.706-.2 2.442-.27 2.036-.402 3.322.254 4.077a1.4 1.4 0 0 0 1.075.486c1.329 0 1.99-.892 2.47-1.542.453-.615.625-.781.961-.781.339 0 .51.166.962.778.482.65 1.14 1.543 2.47 1.543 1.328 0 1.989-.892 2.469-1.543.454-.614.625-.78.962-.78.338 0 .51.166.962.778.482.65 1.14 1.543 2.469 1.543 1.33 0 1.99-.893 2.47-1.543.453-.612.622-.778.961-.778.339 0 .51.166.962.778.482.65 1.14 1.543 2.472 1.543 1.328 0 1.99-.893 2.469-1.543.454-.615.626-.78.962-.78.339 0 .51.165.962.778.482.65 1.14 1.542 2.47 1.542 1.33 0 1.989-.892 2.47-1.542.455-.613.624-.779.963-.779.338 0 .51.166.962.781.482.65 1.14 1.543 2.469 1.543 1.55 0 1.933-1.234 2.116-1.828.05-.159.132-.427.177-.48 0 0 .037-.016.143-.016a.894.894 0 0 0 .226-.03c.01-.003.016 0 .026-.003.021-.005.037-.014.056-.021.03-.012.061-.022.09-.036.03-.014.056-.03.084-.045a.633.633 0 0 0 .146-.11c.021-.018.04-.037.059-.056l.061-.074c.017-.023.033-.045.05-.071a.172.172 0 0 0 .056-.074z"/></g></g></svg>